<svg version="1.1" id="Layer_1" xmlns="http://www.w3.org/2000/svg" xmlns:xlink="http://www.w3.org/1999/xlink" x="0px" y="0px"
	 width="100%" viewBox="0 0 592 592" enable-background="new 0 0 592 592" xml:space="preserve">
<path fill="#000000" opacity="1.000000" stroke="none" 
	d="
M302.323029,318.000061 
	C302.315674,398.138214 302.308563,477.776306 302.298798,557.414429 
	C302.297943,564.514587 302.289978,564.415710 295.182068,564.411743 
	C227.539734,564.374023 159.897385,564.372070 92.255051,564.360840 
	C84.105850,564.359436 84.047806,564.361938 84.078987,556.116150 
	C84.223785,517.824097 84.538971,479.532257 84.535912,441.240356 
	C84.532204,394.940369 84.026253,348.639191 84.257835,302.341125 
	C84.333649,287.185577 84.256493,272.037781 84.034256,256.889557 
	C83.968697,252.421051 85.572502,250.137009 89.918022,248.524689 
	C155.622879,224.146103 221.259979,199.584885 286.910553,175.060089 
	C290.653717,173.661789 294.380920,172.220398 298.106903,170.776779 
	C300.835846,169.719406 302.284821,170.521515 302.280060,173.553452 
	C302.277710,175.052780 302.305481,176.552139 302.305725,178.051483 
	C302.312378,224.534348 302.317352,271.017212 302.323029,318.000061 
M156.337509,281.339752 
	C145.677109,278.107574 135.003860,274.916931 124.361084,271.627808 
	C117.870872,269.621979 117.259468,269.970398 117.256813,276.908722 
	C117.230225,346.367889 117.222687,415.827057 117.230019,485.286224 
	C117.230637,491.106140 117.891418,491.580902 123.237602,489.617706 
	C137.764771,484.283295 152.281128,478.918793 166.772705,473.488708 
	C169.168716,472.590912 171.756287,471.931641 174.164230,469.878021 
	C159.909409,460.977692 153.019836,447.905731 151.021255,432.161957 
	C149.672943,421.540558 151.243134,410.930267 152.684738,400.389038 
	C157.168686,367.601807 167.631866,337.024750 186.544510,309.622284 
	C189.989731,304.630524 193.670273,299.801147 197.823090,294.099243 
	C183.716919,289.737427 170.420746,285.626068 156.337509,281.339752 
M217.499054,298.983063 
	C234.939392,284.430389 254.121964,273.693573 277.254974,271.453033 
	C279.307892,271.254181 282.284576,271.762756 283.167969,269.633453 
	C284.497406,266.429047 284.859009,262.496002 283.218353,259.460938 
	C281.903046,257.027710 278.691803,258.384521 276.298920,258.818329 
	C255.996170,262.499390 238.192215,271.280151 222.883301,285.110199 
	C212.969971,294.065918 204.843613,304.388672 198.655914,316.184875 
	C199.125977,316.632477 199.596024,317.080078 200.066086,317.527679 
	C205.706238,311.508453 211.346390,305.489227 217.499054,298.983063 
M239.337631,403.649841 
	C253.857208,400.269714 268.737762,399.187012 284.037476,397.897400 
	C282.358398,394.181915 280.021942,394.311890 277.963593,394.373932 
	C273.312195,394.514313 268.672363,395.007751 264.021240,395.192810 
	C244.964478,395.951080 226.372375,399.318176 208.321518,405.414459 
	C194.492233,410.085022 181.487946,416.385803 170.983749,426.868591 
	C167.763168,430.082581 164.792816,433.606354 164.598160,439.744019 
	C172.880157,430.177490 181.880280,423.337219 192.495056,418.512726 
	C207.276550,411.794403 222.712311,407.266724 239.337631,403.649841 
z"/>
<path fill="#000000" opacity="1.000000" stroke="none" 
	d="
M458.552429,485.562042 
	C413.463226,470.646332 368.759155,455.824677 324.010284,441.139435 
	C319.527771,439.668396 317.527039,437.235138 317.619720,432.451508 
	C317.823090,421.956909 317.829254,411.452332 317.602509,400.958588 
	C317.510254,396.690033 319.195221,395.362335 323.207458,395.699860 
	C356.436768,398.495026 388.831390,404.674347 418.892975,419.860962 
	C428.115417,424.519989 436.615082,430.345581 442.063110,440.301483 
	C444.102875,435.545990 443.823669,431.364471 443.578461,427.288422 
	C441.696289,396.001251 435.894318,365.585297 422.592651,336.966217 
	C407.774811,305.085144 385.945831,279.948914 353.009705,265.738098 
	C344.722900,262.162628 336.055359,259.932220 327.117584,258.620422 
	C323.546967,258.096375 322.490631,259.350433 322.215027,262.819733 
	C321.464783,272.263977 320.323151,281.677094 319.333252,291.102234 
	C319.250031,291.894440 319.240936,292.730682 318.342712,293.249023 
	C316.428406,291.891693 317.097382,289.880737 317.161072,288.212738 
	C318.261536,259.394836 317.436249,230.567230 317.655029,201.745636 
	C317.728790,192.025452 319.585785,190.551773 328.962769,194.047272 
	C353.608917,203.234756 378.176483,212.632797 402.784668,221.922302 
	C431.913025,232.918167 461.019226,243.974243 490.215515,254.786880 
	C495.225494,256.642303 497.519012,259.010925 497.502655,264.818146 
	C497.290222,340.307098 497.355865,415.796814 497.328491,491.286346 
	C497.327789,493.255157 497.678162,495.283813 496.359802,498.188538 
	C483.937531,494.042603 471.431244,489.868591 458.552429,485.562042 
M451.061035,445.257782 
	C447.445038,455.613739 440.477692,463.439148 430.937714,470.235901 
	C448.120056,476.780273 464.416748,482.246124 481.028625,487.577271 
	C481.028625,415.126373 481.028625,343.400085 481.028625,271.715271 
	C480.062531,271.649658 479.703003,271.527008 479.411682,271.619385 
	C457.218689,278.656006 435.029266,285.703949 412.844818,292.767609 
	C409.196106,293.929382 408.535004,295.969910 410.954254,299.069153 
	C416.698334,306.427704 421.982025,314.091187 426.439209,322.321198 
	C439.646820,346.708588 447.785461,372.820038 452.092163,400.074554 
	C454.421173,414.813446 456.467957,429.782562 451.061035,445.257782 
z"/>
<path fill="#000000" opacity="1.000000" stroke="none" 
	d="
M105.893677,233.086426 
	C100.998787,234.890793 96.473930,236.572464 91.941925,238.234650 
	C89.612724,239.088928 86.689888,240.635712 85.013756,238.359406 
	C83.067513,235.716232 86.111328,233.909271 87.786705,232.239243 
	C118.821136,201.303711 149.918503,170.431274 180.947311,139.490082 
	C218.580750,101.962891 256.159180,64.380508 293.771210,26.831844 
	C298.551788,22.059301 302.842041,22.186213 307.959778,27.281553 
	C334.293243,53.499828 360.573669,79.771431 386.936676,105.959930 
	C428.782593,147.528854 470.679230,189.046722 512.554382,230.586212 
	C512.672668,230.703568 512.801819,230.811966 512.907898,230.939468 
	C514.814087,233.230621 518.884277,235.257980 516.107178,238.704498 
	C513.177490,242.340378 509.575104,239.465851 506.774689,237.648773 
	C501.144867,233.995758 496.849792,228.780960 492.129791,224.093475 
	C432.187500,164.563919 372.295898,104.983261 312.370148,45.437035 
	C310.392944,43.472363 308.594116,41.223606 305.664856,40.064007 
	C303.644379,41.714283 304.260529,44.023258 304.256958,46.032661 
	C304.194244,81.194679 304.054474,116.357788 304.312164,151.517868 
	C304.352264,156.990524 302.523804,159.496307 297.565796,161.329147 
	C247.441208,179.858749 197.377151,198.552475 147.318466,217.259933 
	C133.594086,222.388885 119.944618,227.718262 105.893677,233.086426 
z"/>
</svg>