<?xml version="1.0" encoding="UTF-8" standalone="no"?>
<!-- Created with Inkscape (http://www.inkscape.org/) -->

<svg
   width="345.16888mm"
   height="132.34798mm"
   viewBox="0 0 345.16889 132.34797"
   version="1.1"
   id="svg1"
   xml:space="preserve"
   inkscape:export-filename="landmark.svg"
   inkscape:export-xdpi="96"
   inkscape:export-ydpi="96"
   xmlns:inkscape="http://www.inkscape.org/namespaces/inkscape"
   xmlns:sodipodi="http://sodipodi.sourceforge.net/DTD/sodipodi-0.dtd"
   xmlns="http://www.w3.org/2000/svg"
   xmlns:svg="http://www.w3.org/2000/svg"><sodipodi:namedview
     id="namedview1"
     pagecolor="#505050"
     bordercolor="#eeeeee"
     borderopacity="1"
     inkscape:showpageshadow="0"
     inkscape:pageopacity="0"
     inkscape:pagecheckerboard="0"
     inkscape:deskcolor="#505050"
     inkscape:document-units="mm"><inkscape:page
       x="0"
       y="0"
       width="345.16888"
       height="132.34796"
       id="page2"
       margin="0"
       bleed="0" /></sodipodi:namedview><defs
     id="defs1" /><g
     inkscape:label="Layer 1"
     inkscape:groupmode="layer"
     id="layer1"
     transform="translate(0,-164.65203)"><g
       id="g1"
       transform="matrix(0.21744553,0,0,0.22518175,-15.414224,167.55827)"><path
         fill="#000000"
         opacity="1"
         stroke="none"
         d="m 302.32303,318.00006 c -0.007,80.13815 -0.0145,159.77625 -0.0242,239.41437 -8.6e-4,7.10016 -0.009,7.00128 -7.11673,6.99731 -67.64234,-0.0377 -135.28468,-0.0397 -202.927019,-0.0509 -8.149201,-0.001 -8.207245,10e-4 -8.176064,-8.24469 0.144798,-38.29205 0.459984,-76.58389 0.456925,-114.87579 -0.0037,-46.29999 -0.509659,-92.60117 -0.278077,-138.89924 0.07581,-15.15554 -0.0013,-30.30334 -0.223579,-45.45156 -0.06556,-4.46851 1.538246,-6.75255 5.883766,-8.36487 65.704858,-24.37859 131.341958,-48.9398 196.992528,-73.4646 3.74317,-1.3983 7.47037,-2.83969 11.19635,-4.28331 2.72895,-1.05737 4.17792,-0.25527 4.17316,2.77667 -0.002,1.49933 0.0254,2.99869 0.0257,4.49803 0.007,46.48287 0.0116,92.96573 0.0173,139.94858 M 156.33751,281.33975 c -10.6604,-3.23218 -21.33365,-6.42282 -31.97643,-9.71194 -6.49021,-2.00583 -7.10161,-1.65741 -7.10427,5.28091 -0.0266,69.45917 -0.0341,138.91834 -0.0268,208.3775 6.2e-4,5.81992 0.6614,6.29468 6.00758,4.33149 14.52717,-5.33442 29.04353,-10.69892 43.5351,-16.129 2.39602,-0.8978 4.98359,-1.55707 7.39153,-3.61069 -14.25482,-8.90033 -21.14439,-21.97229 -23.14298,-37.71606 -1.34831,-10.6214 0.22188,-21.23169 1.66349,-31.77292 4.48395,-32.78723 14.94713,-63.36429 33.85977,-90.76676 3.44522,-4.99176 7.12576,-9.82113 11.27858,-15.52304 -14.10617,-4.36181 -27.40234,-8.47317 -41.48558,-12.75949 m 61.16154,17.64331 c 17.44034,-14.55267 36.62291,-25.28949 59.75592,-27.53003 2.05292,-0.19885 5.02961,0.30973 5.913,-1.81958 1.32944,-3.2044 1.69104,-7.13745 0.0504,-10.17251 -1.3153,-2.43323 -4.52655,-1.07642 -6.91943,-0.64261 -20.30275,3.68106 -38.10671,12.46182 -53.41562,26.29187 -9.91333,8.95572 -18.03969,19.27847 -24.22739,31.07467 0.47007,0.44761 0.94011,0.89521 1.41018,1.34281 5.64015,-6.01923 11.2803,-12.03845 17.43296,-18.54462 m 21.83858,104.66678 c 14.51958,-3.38013 29.40013,-4.46283 44.69985,-5.75244 -1.67908,-3.71549 -4.01554,-3.58551 -6.07389,-3.52347 -4.6514,0.14038 -9.29123,0.63382 -13.94235,0.81888 -19.05676,0.75827 -37.64887,4.12537 -55.69972,10.22165 -13.82929,4.67056 -26.83357,10.97134 -37.33777,21.45413 -3.22058,3.21399 -6.19093,6.73776 -6.38559,12.87543 8.282,-9.56653 17.28212,-16.4068 27.8969,-21.23129 14.78149,-6.71833 30.21725,-11.24601 46.84257,-14.86289 z"
         id="path1" /><path
         fill="#000000"
         opacity="1"
         stroke="none"
         d="m 458.55243,485.56204 c -45.0892,-14.91571 -89.79327,-29.73736 -134.54215,-44.42261 -4.48251,-1.47103 -6.48324,-3.90429 -6.39056,-8.68792 0.20337,-10.4946 0.20953,-20.99918 -0.0172,-31.49292 -0.0923,-4.26856 1.59271,-5.59626 5.60495,-5.25873 33.22931,2.79517 65.62393,8.97449 95.68551,24.1611 9.22245,4.65903 17.72211,10.48462 23.17014,20.44052 2.03976,-4.75549 1.76056,-8.93701 1.51535,-13.01306 -1.88217,-31.28717 -7.68414,-61.70312 -20.98581,-90.3222 -14.81784,-31.88108 -36.64682,-57.01731 -69.58295,-71.22812 -8.2868,-3.57547 -16.95434,-5.80588 -25.89212,-7.11768 -3.57061,-0.52404 -4.62695,0.73001 -4.90255,4.19931 -0.75025,9.44425 -1.89188,18.85736 -2.88178,28.2825 -0.0832,0.79221 -0.0923,1.62845 -0.99054,2.14679 -1.9143,-1.35733 -1.24533,-3.36828 -1.18164,-5.03628 1.10047,-28.8179 0.27518,-57.64551 0.49396,-86.4671 0.0738,-9.72019 1.93075,-11.19387 11.30774,-7.69837 24.64615,9.18749 49.21371,18.58553 73.8219,27.87503 29.12835,10.99587 58.23456,22.05194 87.43084,32.86458 5.00998,1.85542 7.3035,4.22404 7.28714,10.03127 -0.21243,75.48895 -0.14679,150.97866 -0.17416,226.4682 -7e-4,1.96881 0.34967,3.99746 -0.96869,6.90219 -12.42227,-4.14594 -24.92856,-8.31995 -37.80737,-12.6265 m -7.4914,-40.30426 c -3.61599,10.35596 -10.58334,18.18137 -20.12332,24.97812 17.18235,6.54437 33.47904,12.01022 50.09091,17.34137 0,-72.4509 0,-144.17719 0,-215.862 -0.96609,-0.0656 -1.32562,-0.18826 -1.61694,-0.0959 -22.19299,7.03662 -44.38241,14.08456 -66.56686,21.14822 -3.64871,1.16177 -4.30982,3.2023 -1.89057,6.30154 5.74408,7.35855 11.02778,15.02204 15.48496,23.25205 13.20761,24.38739 21.34625,50.49884 25.65295,77.75335 2.32901,14.7389 4.3758,29.70801 -1.03113,45.18323 z"
         id="path2" /><path
         fill="#000000"
         opacity="1"
         stroke="none"
         d="m 105.89368,233.08643 c -4.89489,1.80436 -9.41975,3.48603 -13.951755,5.14822 -2.329201,0.85428 -5.252037,2.40106 -6.928169,0.12476 -1.946243,-2.64318 1.097572,-4.45014 2.772949,-6.12017 31.034435,-30.93553 62.131795,-61.80797 93.160605,-92.74916 37.63344,-37.52719 75.21187,-75.109572 112.8239,-112.658236 4.78058,-4.772543 9.07083,-4.645631 14.18857,0.449709 26.33346,26.218275 52.61389,52.489878 78.9769,78.678377 41.84591,41.56892 83.74255,83.08679 125.6177,124.62628 0.11829,0.11736 0.24744,0.22576 0.35352,0.35326 1.90619,2.29115 5.97638,4.31851 3.19928,7.76503 -2.92969,3.63588 -6.53208,0.76135 -9.33249,-1.05573 -5.62982,-3.65301 -9.9249,-8.86781 -14.6449,-13.5553 C 432.1875,164.56392 372.2959,104.98326 312.37015,45.437035 c -1.97721,-1.964672 -3.77603,-4.213429 -6.70529,-5.373028 -2.02048,1.650276 -1.40433,3.959251 -1.4079,5.968654 -0.0627,35.162018 -0.20249,70.325129 0.0552,105.485209 0.0401,5.47265 -1.78836,7.97844 -6.74636,9.81128 -50.12459,18.5296 -100.18865,37.22332 -150.24733,55.93078 -13.72438,5.12895 -27.37385,10.45833 -41.42479,15.8265 z"
         id="path3" /></g><text
       xml:space="preserve"
       style="font-style:normal;font-variant:normal;font-weight:normal;font-stretch:normal;font-size:50.8px;font-family:Roboto;-inkscape-font-specification:'Roboto, Normal';font-variant-ligatures:normal;font-variant-caps:normal;font-variant-numeric:normal;font-variant-east-asian:normal;text-align:start;writing-mode:lr-tb;direction:ltr;text-anchor:start;fill:#000000;fill-opacity:1;stroke:none;stroke-width:4.99999;stroke-linecap:round;stroke-linejoin:round;stroke-dasharray:4.99999, 10;stroke-opacity:0.835294;paint-order:stroke fill markers"
       x="106.18748"
       y="253.69048"
       id="text1"><tspan
         sodipodi:role="line"
         id="tspan1"
         style="font-style:normal;font-variant:normal;font-weight:normal;font-stretch:normal;font-size:50.8px;font-family:Roboto;-inkscape-font-specification:'Roboto, Normal';font-variant-ligatures:normal;font-variant-caps:normal;font-variant-numeric:normal;font-variant-east-asian:normal;fill:#000000;fill-opacity:1;stroke:none;stroke-width:5"
         x="106.18748"
         y="253.69048">Landmark</tspan></text></g></svg>
